<?xml version="1.0" encoding="UTF-8" standalone="no"?>
<!DOCTYPE svg PUBLIC "-//W3C//DTD SVG 1.1//EN" "http://www.w3.org/Graphics/SVG/1.1/DTD/svg11.dtd">
<svg version="1.1" xmlns="http://www.w3.org/2000/svg" xmlns:xlink="http://www.w3.org/1999/xlink" preserveAspectRatio="xMidYMid meet" viewBox="0 0 640 640" width="80" height="80"><defs><path d="M288.9 37.51L292.91 37.93L296.87 38.5L300.79 39.23L304.64 40.12L308.44 41.15L312.18 42.33L315.85 43.65L319.46 45.12L322.99 46.72L326.45 48.46L329.84 50.32L333.14 52.32L336.36 54.44L339.49 56.67L342.54 59.03L345.48 61.5L348.34 64.08L351.09 66.77L353.74 69.57L356.28 72.46L358.72 75.45L361.04 78.54L363.24 81.72L365.33 84.99L367.3 88.34L369.13 91.77L370.84 95.29L372.42 98.87L373.87 102.53L375.17 106.26L376.33 110.06L377.35 113.91L378.22 117.83L378.94 121.8L379.51 125.82L379.92 129.89L380.16 134.01L380.25 138.17L380.16 142.33L379.92 146.45L379.51 150.52L378.94 154.54L378.22 158.51L377.35 162.43L376.33 166.28L375.17 170.07L373.87 173.8L372.42 177.46L370.84 181.05L369.13 184.56L367.3 188L365.33 191.35L363.24 194.62L361.04 197.8L358.72 200.88L356.28 203.88L353.74 206.77L351.09 209.57L348.34 212.25L345.48 214.84L342.54 217.31L339.49 219.66L336.36 221.9L333.14 224.02L329.84 226.01L326.45 227.88L322.99 229.61L319.46 231.22L315.85 232.68L314 233.35L314.27 233.47L319.2 235.61L324.06 237.71L328.83 239.76L333.51 241.77L338.1 243.75L342.6 245.68L346.99 247.58L351.28 249.45L355.46 251.28L359.53 253.08L363.48 254.85L367.3 256.6L371.01 258.32L374.58 260.02L378.02 261.7L381.32 263.35L384.48 264.99L387.5 266.62L390.36 268.23L393.07 269.82L395.62 271.41L398 272.99L400.22 274.56L402.27 276.13L404.15 277.69L405.84 279.26L407.35 280.82L408.67 282.39L409.8 283.96L410.73 285.53L411.47 287.12L412 288.71L412.32 290.32L412.43 291.94L412.32 293.56L412 295.16L411.47 296.75L410.73 298.32L409.8 299.86L408.67 301.38L407.35 302.89L405.84 304.36L404.15 305.81L402.27 307.24L400.22 308.63L398 310L395.62 311.34L393.07 312.64L390.36 313.91L387.5 315.15L384.48 316.35L381.32 317.52L378.02 318.64L374.58 319.73L371.01 320.77L367.3 321.78L363.48 322.74L359.53 323.66L355.46 324.53L351.28 325.35L346.99 326.13L342.6 326.85L338.1 327.53L333.51 328.15L328.83 328.72L324.06 329.23L319.2 329.69L314.27 330.1L309.26 330.44L304.18 330.72L299.03 330.95L293.81 331.11L288.54 331.2L283.22 331.24L277.89 331.2L272.62 331.11L267.41 330.95L262.26 330.72L257.18 330.44L252.17 330.1L247.23 329.69L242.38 329.23L237.61 328.72L232.92 328.15L228.33 327.53L223.84 326.85L219.45 326.13L215.16 325.35L210.98 324.53L206.91 323.66L202.96 322.74L199.13 321.78L195.43 320.77L191.85 319.73L188.41 318.64L185.11 317.52L181.95 316.35L178.94 315.15L176.08 313.91L173.37 312.64L170.82 311.34L168.43 310L166.21 308.63L164.16 307.24L162.29 305.81L160.6 304.36L159.09 302.89L157.77 301.38L156.63 299.86L155.7 298.32L154.97 296.75L154.44 295.16L154.12 293.56L154.01 291.94L154.12 290.32L154.44 288.71L154.97 287.12L155.7 285.53L156.63 283.96L157.77 282.39L159.09 280.82L160.6 279.26L162.29 277.69L164.16 276.13L166.21 274.56L168.43 272.99L170.82 271.41L173.37 269.82L176.08 268.23L178.94 266.62L181.95 264.99L185.11 263.35L188.41 261.7L191.85 260.02L195.43 258.32L199.13 256.6L202.96 254.85L206.91 253.08L210.98 251.28L215.16 249.45L219.45 247.58L223.84 245.68L228.33 243.75L232.92 241.77L237.61 239.76L242.38 237.71L247.23 235.61L250.24 234.3L249.31 234.01L245.63 232.68L242.03 231.22L238.49 229.61L235.03 227.88L231.65 226.01L228.34 224.02L225.12 221.9L221.99 219.66L218.95 217.31L216 214.84L213.15 212.25L210.4 209.57L207.75 206.77L205.2 203.88L202.77 200.88L200.45 197.8L198.24 194.62L196.15 191.35L194.19 188L192.35 184.56L190.64 181.05L189.06 177.46L187.62 173.8L186.31 170.07L185.15 166.28L184.13 162.43L183.26 158.51L182.54 154.54L181.98 150.52L181.57 146.45L181.32 142.33L181.24 138.17L181.32 134.01L181.57 129.89L181.98 125.82L182.54 121.8L183.26 117.83L184.13 113.91L185.15 110.06L186.31 106.26L187.62 102.53L189.06 98.87L190.64 95.29L192.35 91.77L194.19 88.34L196.15 84.99L198.24 81.72L200.45 78.54L202.77 75.45L205.2 72.46L207.75 69.57L210.4 66.77L213.15 64.08L216 61.5L218.95 59.03L221.99 56.67L225.12 54.44L228.34 52.32L231.65 50.32L235.03 48.46L238.49 46.72L242.03 45.12L245.63 43.65L249.31 42.33L253.04 41.15L256.84 40.12L260.7 39.23L264.61 38.5L268.57 37.93L272.59 37.51L276.64 37.26L280.74 37.18L284.84 37.26L288.9 37.51Z" id="b1aCvGfndw"></path><path d="M414.74 162.07L418.75 162.48L422.72 163.06L426.63 163.79L430.48 164.67L434.28 165.7L438.02 166.88L441.69 168.21L445.3 169.67L448.84 171.28L452.3 173.01L455.68 174.88L458.98 176.87L462.2 178.99L465.33 181.23L468.38 183.58L471.33 186.06L474.18 188.64L476.93 191.33L479.58 194.12L482.12 197.01L484.56 200.01L486.88 203.1L489.09 206.27L491.17 209.54L493.14 212.89L494.98 216.33L496.69 219.84L498.26 223.43L499.71 227.09L501.01 230.82L502.18 234.61L503.2 238.47L504.07 242.38L504.79 246.35L505.35 250.37L505.76 254.45L506.01 258.56L506.09 262.72L506.01 266.88L505.76 271L505.35 275.07L504.79 279.09L504.07 283.07L503.2 286.98L502.18 290.84L501.01 294.63L499.71 298.36L498.26 302.02L496.69 305.6L494.98 309.12L493.14 312.55L491.17 315.9L489.09 319.17L486.88 322.35L484.56 325.44L482.12 328.43L479.58 331.33L476.93 334.12L474.18 336.81L471.33 339.39L468.38 341.86L465.33 344.22L462.2 346.46L458.98 348.57L455.68 350.57L452.3 352.43L448.84 354.17L445.3 355.77L441.69 357.24L439.84 357.9L440.11 358.02L445.04 360.16L449.9 362.26L454.67 364.32L459.35 366.33L463.94 368.3L468.44 370.24L472.83 372.14L477.12 374L481.3 375.83L485.37 377.63L489.32 379.41L493.15 381.15L496.85 382.88L500.42 384.57L503.86 386.25L507.16 387.91L510.32 389.55L513.34 391.17L516.2 392.78L518.91 394.38L521.46 395.97L523.85 397.54L526.07 399.12L528.11 400.68L529.99 402.25L531.68 403.81L533.19 405.37L534.51 406.94L535.64 408.51L536.58 410.09L537.31 411.67L537.84 413.27L538.16 414.88L538.27 416.5L538.16 418.12L537.84 419.72L537.31 421.3L536.58 422.87L535.64 424.42L534.51 425.94L533.19 427.44L531.68 428.92L529.99 430.37L528.11 431.79L526.07 433.19L523.85 434.55L521.46 435.89L518.91 437.2L516.2 438.47L513.34 439.7L510.32 440.91L507.16 442.07L503.86 443.2L500.42 444.28L496.85 445.33L493.15 446.33L489.32 447.29L485.37 448.21L481.3 449.08L477.12 449.9L472.83 450.68L468.44 451.41L463.94 452.08L459.35 452.7L454.67 453.27L449.9 453.79L445.04 454.25L440.11 454.65L435.1 454.99L430.02 455.28L424.87 455.5L419.66 455.66L414.39 455.76L409.06 455.79L403.73 455.76L398.46 455.66L393.25 455.5L388.1 455.28L383.02 454.99L378.01 454.65L373.07 454.25L368.22 453.79L363.45 453.27L358.77 452.7L354.18 452.08L349.68 451.41L345.29 450.68L341 449.9L336.82 449.08L332.75 448.21L328.8 447.29L324.97 446.33L321.27 445.33L317.7 444.28L314.26 443.2L310.95 442.07L307.79 440.91L304.78 439.7L301.92 438.47L299.21 437.2L296.66 435.89L294.27 434.55L292.05 433.19L290.01 431.79L288.13 430.37L286.44 428.92L284.93 427.44L283.61 425.94L282.48 424.42L281.54 422.87L280.81 421.3L280.28 419.72L279.96 418.12L279.85 416.5L279.96 414.88L280.28 413.27L280.81 411.67L281.54 410.09L282.48 408.51L283.61 406.94L284.93 405.37L286.44 403.81L288.13 402.25L290.01 400.68L292.05 399.12L294.27 397.54L296.66 395.97L299.21 394.38L301.92 392.78L304.78 391.17L307.79 389.55L310.95 387.91L314.26 386.25L317.7 384.57L321.27 382.88L324.97 381.15L328.8 379.41L332.75 377.63L336.82 375.83L341 374L345.29 372.14L349.68 370.24L354.18 368.3L358.77 366.33L363.45 364.32L368.22 362.26L373.07 360.16L376.08 358.86L375.15 358.56L371.47 357.24L367.87 355.77L364.33 354.17L360.87 352.43L357.49 350.57L354.19 348.57L350.97 346.46L347.83 344.22L344.79 341.86L341.84 339.39L338.99 336.81L336.24 334.12L333.59 331.33L331.04 328.43L328.61 325.44L326.29 322.35L324.08 319.17L322 315.9L320.03 312.55L318.19 309.12L316.48 305.6L314.9 302.02L313.46 298.36L312.16 294.63L310.99 290.84L309.97 286.98L309.1 283.07L308.38 279.09L307.82 275.07L307.41 271L307.16 266.88L307.08 262.72L307.16 258.56L307.41 254.45L307.82 250.37L308.38 246.35L309.1 242.38L309.97 238.47L310.99 234.61L312.16 230.82L313.46 227.09L314.9 223.43L316.48 219.84L318.19 216.33L320.03 212.89L322 209.54L324.08 206.27L326.29 203.1L328.61 200.01L331.04 197.01L333.59 194.12L336.24 191.33L338.99 188.64L341.84 186.06L344.79 183.58L347.83 181.23L350.97 178.99L354.19 176.87L357.49 174.88L360.87 173.01L364.33 171.28L367.87 169.67L371.47 168.21L375.15 166.88L378.88 165.7L382.68 164.67L386.54 163.79L390.45 163.06L394.42 162.48L398.43 162.07L402.49 161.82L406.58 161.73L410.68 161.82L414.74 162.07Z" id="d1kB8SEadb"></path><path d="M236.62 239.69L240.63 240.11L244.6 240.68L248.51 241.41L252.37 242.29L256.16 243.33L259.9 244.51L263.58 245.83L267.18 247.3L270.72 248.9L274.18 250.64L277.56 252.5L280.86 254.5L284.08 256.61L287.22 258.85L290.26 261.21L293.21 263.68L296.06 266.26L298.81 268.95L301.46 271.74L304.01 274.64L306.44 277.63L308.76 280.72L310.97 283.9L313.05 287.17L315.02 290.52L316.86 293.95L318.57 297.46L320.15 301.05L321.59 304.71L322.89 308.44L324.06 312.23L325.08 316.09L325.95 320L326.67 323.97L327.23 328L327.64 332.07L327.89 336.19L327.97 340.35L327.89 344.51L327.64 348.62L327.23 352.7L326.67 356.72L325.95 360.69L325.08 364.6L324.06 368.46L322.89 372.25L321.59 375.98L320.15 379.64L318.57 383.23L316.86 386.74L315.02 390.17L313.05 393.53L310.97 396.79L308.76 399.97L306.44 403.06L304.01 406.05L301.46 408.95L298.81 411.74L296.06 414.43L293.21 417.01L290.26 419.48L287.22 421.84L284.08 424.08L280.86 426.2L277.56 428.19L274.18 430.06L270.72 431.79L267.18 433.4L263.58 434.86L261.73 435.53L261.99 435.64L266.93 437.79L271.78 439.88L276.55 441.94L281.23 443.95L285.82 445.92L290.32 447.86L294.71 449.76L299 451.62L303.18 453.46L307.25 455.26L311.2 457.03L315.03 458.78L318.73 460.5L322.3 462.2L325.74 463.87L329.05 465.53L332.21 467.17L335.22 468.79L338.08 470.4L340.79 472L343.34 473.59L345.73 475.17L347.95 476.74L349.99 478.31L351.87 479.87L353.56 481.43L355.07 483L356.39 484.56L357.52 486.14L358.46 487.71L359.19 489.3L359.72 490.89L360.04 492.5L360.15 494.12L360.04 495.74L359.72 497.34L359.19 498.93L358.46 500.49L357.52 502.04L356.39 503.56L355.07 505.06L353.56 506.54L351.87 507.99L349.99 509.42L347.95 510.81L345.73 512.18L343.34 513.51L340.79 514.82L338.08 516.09L335.22 517.33L332.21 518.53L329.05 519.69L325.74 520.82L322.3 521.91L318.73 522.95L315.03 523.96L311.2 524.92L307.25 525.83L303.18 526.7L299 527.53L294.71 528.3L290.32 529.03L285.82 529.7L281.23 530.33L276.55 530.9L271.78 531.41L266.93 531.87L261.99 532.27L256.98 532.62L251.9 532.9L246.75 533.12L241.54 533.29L236.27 533.38L230.94 533.42L225.61 533.38L220.34 533.29L215.13 533.12L209.98 532.9L204.9 532.62L199.89 532.27L194.96 531.87L190.1 531.41L185.33 530.9L180.65 530.33L176.06 529.7L171.56 529.03L167.17 528.3L162.88 527.53L158.7 526.7L154.63 525.83L150.68 524.92L146.85 523.96L143.15 522.95L139.58 521.91L136.14 520.82L132.84 519.69L129.68 518.53L126.66 517.33L123.8 516.09L121.09 514.82L118.54 513.51L116.15 512.18L113.93 510.81L111.89 509.42L110.01 507.99L108.32 506.54L106.81 505.06L105.49 503.56L104.36 502.04L103.42 500.49L102.69 498.93L102.16 497.34L101.84 495.74L101.73 494.12L101.84 492.5L102.16 490.89L102.69 489.3L103.42 487.71L104.36 486.14L105.49 484.56L106.81 483L108.32 481.43L110.01 479.87L111.89 478.31L113.93 476.74L116.15 475.17L118.54 473.59L121.09 472L123.8 470.4L126.66 468.79L129.68 467.17L132.84 465.53L136.14 463.87L139.58 462.2L143.15 460.5L146.85 458.78L150.68 457.03L154.63 455.26L158.7 453.46L162.88 451.62L167.17 449.76L171.56 447.86L176.06 445.92L180.65 443.95L185.33 441.94L190.1 439.88L194.96 437.79L197.96 436.48L197.03 436.18L193.35 434.86L189.75 433.4L186.21 431.79L182.75 430.06L179.37 428.19L176.07 426.2L172.85 424.08L169.71 421.84L166.67 419.48L163.72 417.01L160.87 414.43L158.12 411.74L155.47 408.95L152.93 406.05L150.49 403.06L148.17 399.97L145.96 396.79L143.88 393.53L141.91 390.17L140.07 386.74L138.36 383.23L136.79 379.64L135.34 375.98L134.04 372.25L132.87 368.46L131.85 364.6L130.98 360.69L130.26 356.72L129.7 352.7L129.29 348.62L129.04 344.51L128.96 340.35L129.04 336.19L129.29 332.07L129.7 328L130.26 323.97L130.98 320L131.85 316.09L132.87 312.23L134.04 308.44L135.34 304.71L136.79 301.05L138.36 297.46L140.07 293.95L141.91 290.52L143.88 287.17L145.96 283.9L148.17 280.72L150.49 277.63L152.93 274.64L155.47 271.74L158.12 268.95L160.87 266.26L163.72 263.68L166.67 261.21L169.71 258.85L172.85 256.61L176.07 254.5L179.37 252.5L182.75 250.64L186.21 248.9L189.75 247.3L193.35 245.83L197.03 244.51L200.77 243.33L204.57 242.29L208.42 241.41L212.33 240.68L216.3 240.11L220.31 239.69L224.37 239.44L228.47 239.36L232.56 239.44L236.62 239.69Z" id="a11CdAwwjp"></path><path d="M377.31 309.1L381.33 309.51L385.29 310.09L389.2 310.82L393.06 311.7L396.86 312.73L400.6 313.91L404.27 315.24L407.87 316.7L411.41 318.31L414.87 320.04L418.25 321.91L421.56 323.9L424.78 326.02L427.91 328.26L430.95 330.61L433.9 333.08L436.75 335.67L439.51 338.36L442.15 341.15L444.7 344.04L447.13 347.04L449.45 350.13L451.66 353.3L453.75 356.57L455.71 359.92L457.55 363.36L459.26 366.87L460.84 370.46L462.28 374.12L463.59 377.85L464.75 381.64L465.77 385.5L466.64 389.41L467.36 393.38L467.93 397.4L468.33 401.47L468.58 405.59L468.66 409.75L468.58 413.91L468.33 418.03L467.93 422.1L467.36 426.12L466.64 430.09L465.77 434.01L464.75 437.87L463.59 441.66L462.28 445.39L460.84 449.05L459.26 452.63L457.55 456.15L455.71 459.58L453.75 462.93L451.66 466.2L449.45 469.38L447.13 472.47L444.7 475.46L442.15 478.36L439.51 481.15L436.75 483.84L433.9 486.42L430.95 488.89L427.91 491.25L424.78 493.49L421.56 495.6L418.25 497.6L414.87 499.46L411.41 501.2L407.87 502.8L404.27 504.27L402.42 504.93L402.68 505.05L407.62 507.19L412.47 509.29L417.24 511.34L421.93 513.36L426.52 515.33L431.01 517.27L435.41 519.16L439.69 521.03L443.88 522.86L447.94 524.66L451.89 526.44L455.72 528.18L459.42 529.9L463 531.6L466.44 533.28L469.74 534.94L472.9 536.58L475.91 538.2L478.77 539.81L481.48 541.41L484.03 542.99L486.42 544.57L488.64 546.15L490.69 547.71L492.56 549.28L494.25 550.84L495.76 552.4L497.09 553.97L498.22 555.54L499.15 557.12L499.88 558.7L500.41 560.3L500.73 561.91L500.84 563.53L500.73 565.15L500.41 566.75L499.88 568.33L499.15 569.9L498.22 571.45L497.09 572.97L495.76 574.47L494.25 575.95L492.56 577.4L490.69 578.82L488.64 580.22L486.42 581.58L484.03 582.92L481.48 584.23L478.77 585.5L475.91 586.73L472.9 587.93L469.74 589.1L466.44 590.23L463 591.31L459.42 592.36L455.72 593.36L451.89 594.32L447.94 595.24L443.88 596.11L439.69 596.93L435.41 597.71L431.01 598.44L426.52 599.11L421.93 599.73L417.24 600.3L412.47 600.82L407.62 601.28L402.68 601.68L397.67 602.02L392.59 602.31L387.44 602.53L382.23 602.69L376.96 602.79L371.63 602.82L366.31 602.79L361.04 602.69L355.82 602.53L350.68 602.31L345.59 602.02L340.58 601.68L335.65 601.28L330.79 600.82L326.02 600.3L321.34 599.73L316.75 599.11L312.26 598.44L307.86 597.71L303.57 596.93L299.39 596.11L295.33 595.24L291.38 594.32L287.55 593.36L283.84 592.36L280.27 591.31L276.83 590.23L273.53 589.1L270.37 587.93L267.36 586.73L264.49 585.5L261.78 584.23L259.23 582.92L256.85 581.58L254.63 580.22L252.58 578.82L250.71 577.4L249.01 575.95L247.5 574.47L246.18 572.97L245.05 571.45L244.12 569.9L243.38 568.33L242.85 566.75L242.53 565.15L242.43 563.53L242.53 561.91L242.85 560.3L243.38 558.7L244.12 557.12L245.05 555.54L246.18 553.97L247.5 552.4L249.01 550.84L250.71 549.28L252.58 547.71L254.63 546.15L256.85 544.57L259.23 542.99L261.78 541.41L264.49 539.81L267.36 538.2L270.37 536.58L273.53 534.94L276.83 533.28L280.27 531.6L283.84 529.9L287.55 528.18L291.38 526.44L295.33 524.66L299.39 522.86L303.57 521.03L307.86 519.16L312.26 517.27L316.75 515.33L321.34 513.36L326.02 511.34L330.79 509.29L335.65 507.19L338.66 505.89L337.72 505.59L334.05 504.27L330.44 502.8L326.91 501.2L323.45 499.46L320.06 497.6L316.76 495.6L313.54 493.49L310.41 491.25L307.37 488.89L304.42 486.42L301.56 483.84L298.81 481.15L296.16 478.36L293.62 475.46L291.18 472.47L288.86 469.38L286.66 466.2L284.57 462.93L282.61 459.58L280.77 456.15L279.06 452.63L277.48 449.05L276.03 445.39L274.73 441.66L273.57 437.87L272.55 434.01L271.68 430.09L270.96 426.12L270.39 422.1L269.98 418.03L269.74 413.91L269.65 409.75L269.74 405.59L269.98 401.47L270.39 397.4L270.96 393.38L271.68 389.41L272.55 385.5L273.57 381.64L274.73 377.85L276.03 374.12L277.48 370.46L279.06 366.87L280.77 363.36L282.61 359.92L284.57 356.57L286.66 353.3L288.86 350.13L291.18 347.04L293.62 344.04L296.16 341.15L298.81 338.36L301.56 335.67L304.42 333.08L307.37 330.61L310.41 328.26L313.54 326.02L316.76 323.9L320.06 321.91L323.45 320.04L326.91 318.31L330.44 316.7L334.05 315.24L337.72 313.91L341.46 312.73L345.26 311.7L349.12 310.82L353.03 310.09L356.99 309.51L361 309.1L365.06 308.85L369.16 308.76L373.26 308.85L377.31 309.1Z" id="a1ij3ce3Sf"></path></defs><g><g><g><use xlink:href="#b1aCvGfndw" opacity="1" fill="#f2e73a" fill-opacity="1"></use><g><use xlink:href="#b1aCvGfndw" opacity="1" fill-opacity="0" stroke="#000000" stroke-width="8" stroke-opacity="1"></use></g></g><g><use xlink:href="#d1kB8SEadb" opacity="1" fill="#f2e73a" fill-opacity="1"></use><g><use xlink:href="#d1kB8SEadb" opacity="1" fill-opacity="0" stroke="#000000" stroke-width="8" stroke-opacity="1"></use></g></g><g><use xlink:href="#a11CdAwwjp" opacity="1" fill="#f2e73a" fill-opacity="1"></use><g><use xlink:href="#a11CdAwwjp" opacity="1" fill-opacity="0" stroke="#000000" stroke-width="8" stroke-opacity="1"></use></g></g><g><use xlink:href="#a1ij3ce3Sf" opacity="1" fill="#f2e73a" fill-opacity="1"></use><g><use xlink:href="#a1ij3ce3Sf" opacity="1" fill-opacity="0" stroke="#000000" stroke-width="8" stroke-opacity="1"></use></g></g></g></g></svg>