<?xml version="1.0" encoding="UTF-8" standalone="no"?>
<!DOCTYPE svg PUBLIC "-//W3C//DTD SVG 1.1//EN" "http://www.w3.org/Graphics/SVG/1.1/DTD/svg11.dtd">
<svg version="1.1" xmlns="http://www.w3.org/2000/svg" xmlns:xlink="http://www.w3.org/1999/xlink" preserveAspectRatio="xMidYMid meet" viewBox="0 0 640 640" width="80" height="80"><defs><path d="M328.16 167.66L332.17 168.08L336.13 168.65L340.04 169.38L343.9 170.26L347.7 171.3L351.44 172.48L355.11 173.8L358.72 175.27L362.25 176.87L365.71 178.61L369.1 180.47L372.4 182.47L375.62 184.58L378.75 186.82L381.79 189.18L384.74 191.65L387.59 194.23L390.35 196.92L393 199.71L395.54 202.61L397.97 205.6L400.3 208.69L402.5 211.87L404.59 215.14L406.55 218.49L408.39 221.92L410.1 225.44L411.68 229.02L413.12 232.68L414.43 236.41L415.59 240.2L416.61 244.06L417.48 247.97L418.2 251.94L418.77 255.97L419.17 260.04L419.42 264.16L419.5 268.32L419.42 272.48L419.17 276.59L418.77 280.67L418.2 284.69L417.48 288.66L416.61 292.57L415.59 296.43L414.43 300.22L413.12 303.95L411.68 307.61L410.1 311.2L408.39 314.71L406.55 318.15L404.59 321.5L402.5 324.76L400.3 327.94L397.97 331.03L395.54 334.02L393 336.92L390.35 339.71L387.59 342.4L384.74 344.98L381.79 347.45L378.75 349.81L375.62 352.05L372.4 354.17L369.1 356.16L365.71 358.03L362.25 359.76L358.72 361.37L355.11 362.83L353.26 363.5L353.53 363.61L358.46 365.76L363.31 367.85L368.09 369.91L372.77 371.92L377.36 373.89L381.85 375.83L386.25 377.73L390.54 379.59L394.72 381.43L398.78 383.23L402.73 385L406.56 386.75L410.27 388.47L413.84 390.17L417.28 391.84L420.58 393.5L423.74 395.14L426.75 396.76L429.62 398.37L432.32 399.97L434.87 401.56L437.26 403.14L439.48 404.71L441.53 406.28L443.4 407.84L445.1 409.4L446.61 410.97L447.93 412.54L449.06 414.11L449.99 415.68L450.73 417.27L451.25 418.86L451.58 420.47L451.68 422.09L451.58 423.71L451.25 425.31L450.73 426.9L449.99 428.46L449.06 430.01L447.93 431.53L446.61 433.03L445.1 434.51L443.4 435.96L441.53 437.39L439.48 438.78L437.26 440.15L434.87 441.49L432.32 442.79L429.62 444.06L426.75 445.3L423.74 446.5L420.58 447.66L417.28 448.79L413.84 449.88L410.27 450.92L406.56 451.93L402.73 452.89L398.78 453.8L394.72 454.67L390.54 455.5L386.25 456.27L381.85 457L377.36 457.68L372.77 458.3L368.09 458.87L363.31 459.38L358.46 459.84L353.53 460.24L348.52 460.59L343.43 460.87L338.28 461.09L333.07 461.26L327.8 461.35L322.48 461.39L317.15 461.35L311.88 461.26L306.67 461.09L301.52 460.87L296.44 460.59L291.43 460.24L286.49 459.84L281.64 459.38L276.86 458.87L272.18 458.3L267.59 457.68L263.1 457L258.7 456.27L254.41 455.5L250.23 454.67L246.17 453.8L242.22 452.89L238.39 451.93L234.68 450.92L231.11 449.88L227.67 448.79L224.37 447.66L221.21 446.5L218.2 445.3L215.33 444.06L212.63 442.79L210.08 441.49L207.69 440.15L205.47 438.78L203.42 437.39L201.55 435.96L199.85 434.51L198.34 433.03L197.02 431.53L195.89 430.01L194.96 428.46L194.22 426.9L193.7 425.31L193.38 423.71L193.27 422.09L193.38 420.47L193.7 418.86L194.22 417.27L194.96 415.68L195.89 414.11L197.02 412.54L198.34 410.97L199.85 409.4L201.55 407.84L203.42 406.28L205.47 404.71L207.69 403.14L210.08 401.56L212.63 399.97L215.33 398.37L218.2 396.76L221.21 395.14L224.37 393.5L227.67 391.84L231.11 390.17L234.68 388.47L238.39 386.75L242.22 385L246.17 383.23L250.23 381.43L254.41 379.59L258.7 377.73L263.1 375.83L267.59 373.89L272.18 371.92L276.86 369.91L281.64 367.85L286.49 365.76L289.5 364.45L288.56 364.15L284.89 362.83L281.28 361.37L277.75 359.76L274.29 358.03L270.9 356.16L267.6 354.17L264.38 352.05L261.25 349.81L258.21 347.45L255.26 344.98L252.41 342.4L249.65 339.71L247 336.92L244.46 334.02L242.03 331.03L239.7 327.94L237.5 324.76L235.41 321.5L233.45 318.15L231.61 314.71L229.9 311.2L228.32 307.61L226.88 303.95L225.57 300.22L224.41 296.43L223.39 292.57L222.52 288.66L221.8 284.69L221.23 280.67L220.83 276.59L220.58 272.48L220.5 268.32L220.58 264.16L220.83 260.04L221.23 255.97L221.8 251.94L222.52 247.97L223.39 244.06L224.41 240.2L225.57 236.41L226.88 232.68L228.32 229.02L229.9 225.44L231.61 221.92L233.45 218.49L235.41 215.14L237.5 211.87L239.7 208.69L242.03 205.6L244.46 202.61L247 199.71L249.65 196.92L252.41 194.23L255.26 191.65L258.21 189.18L261.25 186.82L264.38 184.58L267.6 182.47L270.9 180.47L274.29 178.61L277.75 176.87L281.28 175.27L284.89 173.8L288.56 172.48L292.3 171.3L296.1 170.26L299.96 169.38L303.87 168.65L307.83 168.08L311.84 167.66L315.9 167.41L320 167.33L324.1 167.41L328.16 167.66Z" id="bp2UWYpZ0"></path></defs><g><g><g><use xlink:href="#bp2UWYpZ0" opacity="1" fill="#f2e73a" fill-opacity="1"></use><g><use xlink:href="#bp2UWYpZ0" opacity="1" fill-opacity="0" stroke="#000000" stroke-width="8" stroke-opacity="0.34"></use></g></g></g></g></svg>