<?xml version="1.0" encoding="UTF-8" standalone="no"?>
<!DOCTYPE svg PUBLIC "-//W3C//DTD SVG 1.1//EN" "http://www.w3.org/Graphics/SVG/1.1/DTD/svg11.dtd">
<svg version="1.1" xmlns="http://www.w3.org/2000/svg" xmlns:xlink="http://www.w3.org/1999/xlink" preserveAspectRatio="xMidYMid meet" viewBox="0 0 640 640" width="40" height="40"><defs><path d="M367.71 144.05L371.72 144.46L375.69 145.04L379.6 145.77L383.45 146.65L387.25 147.68L390.99 148.86L394.66 150.19L398.27 151.65L401.81 153.26L405.27 154.99L408.65 156.86L411.95 158.85L415.17 160.97L418.3 163.21L421.35 165.57L424.3 168.04L427.15 170.62L429.9 173.31L432.55 176.1L435.09 178.99L437.53 181.99L439.85 185.08L442.06 188.25L444.14 191.52L446.11 194.87L447.95 198.31L449.66 201.82L451.23 205.41L452.68 209.07L453.98 212.8L455.15 216.59L456.17 220.45L457.04 224.36L457.76 228.33L458.32 232.35L458.73 236.43L458.98 240.54L459.06 244.7L458.98 248.86L458.73 252.98L458.32 257.05L457.76 261.08L457.04 265.05L456.17 268.96L455.15 272.82L453.98 276.61L452.68 280.34L451.23 284L449.66 287.58L447.95 291.1L446.11 294.53L444.14 297.88L442.06 301.15L439.85 304.33L437.53 307.42L435.09 310.41L432.55 313.31L429.9 316.1L427.15 318.79L424.3 321.37L421.35 323.84L418.3 326.2L415.17 328.44L411.95 330.55L408.65 332.55L405.27 334.41L401.81 336.15L398.27 337.75L394.66 339.22L392.81 339.88L393.08 340L398.01 342.14L402.87 344.24L407.64 346.3L412.32 348.31L416.91 350.28L421.41 352.22L425.8 354.12L430.09 355.98L434.27 357.81L438.34 359.61L442.29 361.39L446.12 363.13L449.82 364.86L453.39 366.55L456.83 368.23L460.13 369.89L463.29 371.53L466.31 373.15L469.17 374.76L471.88 376.36L474.43 377.95L476.82 379.52L479.04 381.1L481.08 382.66L482.96 384.23L484.65 385.79L486.16 387.35L487.48 388.92L488.61 390.49L489.55 392.07L490.28 393.65L490.81 395.25L491.13 396.86L491.24 398.48L491.13 400.1L490.81 401.7L490.28 403.28L489.55 404.85L488.61 406.4L487.48 407.92L486.16 409.42L484.65 410.9L482.96 412.35L481.08 413.77L479.04 415.17L476.82 416.54L474.43 417.87L471.88 419.18L469.17 420.45L466.31 421.68L463.29 422.89L460.13 424.05L456.83 425.18L453.39 426.26L449.82 427.31L446.12 428.31L442.29 429.27L438.34 430.19L434.27 431.06L430.09 431.88L425.8 432.66L421.41 433.39L416.91 434.06L412.32 434.68L407.64 435.25L402.87 435.77L398.01 436.23L393.08 436.63L388.07 436.97L382.99 437.26L377.84 437.48L372.63 437.64L367.36 437.74L362.03 437.77L356.7 437.74L351.43 437.64L346.22 437.48L341.07 437.26L335.99 436.97L330.98 436.63L326.04 436.23L321.19 435.77L316.42 435.25L311.74 434.68L307.15 434.06L302.65 433.39L298.26 432.66L293.97 431.88L289.79 431.06L285.72 430.19L281.77 429.27L277.94 428.31L274.24 427.31L270.67 426.26L267.23 425.18L263.92 424.05L260.76 422.89L257.75 421.68L254.89 420.45L252.18 419.18L249.63 417.87L247.24 416.54L245.02 415.17L242.98 413.77L241.1 412.35L239.41 410.9L237.9 409.42L236.58 407.92L235.45 406.4L234.51 404.85L233.78 403.28L233.25 401.7L232.93 400.1L232.82 398.48L232.93 396.86L233.25 395.25L233.78 393.65L234.51 392.07L235.45 390.49L236.58 388.92L237.9 387.35L239.41 385.79L241.1 384.23L242.98 382.66L245.02 381.1L247.24 379.52L249.63 377.95L252.18 376.36L254.89 374.76L257.75 373.15L260.76 371.53L263.92 369.89L267.23 368.23L270.67 366.55L274.24 364.86L277.94 363.13L281.77 361.39L285.72 359.61L289.79 357.81L293.97 355.98L298.26 354.12L302.65 352.22L307.15 350.28L311.74 348.31L316.42 346.3L321.19 344.24L326.04 342.14L329.05 340.84L328.12 340.54L324.44 339.22L320.84 337.75L317.3 336.15L313.84 334.41L310.46 332.55L307.16 330.55L303.94 328.44L300.8 326.2L297.76 323.84L294.81 321.37L291.96 318.79L289.21 316.1L286.56 313.31L284.01 310.41L281.58 307.42L279.26 304.33L277.05 301.15L274.97 297.88L273 294.53L271.16 291.1L269.45 287.58L267.87 284L266.43 280.34L265.13 276.61L263.96 272.82L262.94 268.96L262.07 265.05L261.35 261.08L260.79 257.05L260.38 252.98L260.13 248.86L260.05 244.7L260.13 240.54L260.38 236.43L260.79 232.35L261.35 228.33L262.07 224.36L262.94 220.45L263.96 216.59L265.13 212.8L266.43 209.07L267.87 205.41L269.45 201.82L271.16 198.31L273 194.87L274.97 191.52L277.05 188.25L279.26 185.08L281.58 181.99L284.01 178.99L286.56 176.1L289.21 173.31L291.96 170.62L294.81 168.04L297.76 165.57L300.8 163.21L303.94 160.97L307.16 158.85L310.46 156.86L313.84 154.99L317.3 153.26L320.84 151.65L324.44 150.19L328.12 148.86L331.86 147.68L335.65 146.65L339.51 145.77L343.42 145.04L347.39 144.46L351.4 144.05L355.46 143.8L359.55 143.71L363.65 143.8L367.71 144.05Z" id="c1eamVTotJ"></path><path d="M283.65 202.56L287.66 202.98L291.63 203.55L295.54 204.28L299.4 205.16L303.19 206.2L306.93 207.38L310.61 208.7L314.21 210.17L317.75 211.77L321.21 213.51L324.59 215.37L327.89 217.37L331.11 219.49L334.25 221.72L337.29 224.08L340.24 226.55L343.09 229.13L345.84 231.82L348.49 234.61L351.04 237.51L353.47 240.5L355.79 243.59L358 246.77L360.08 250.04L362.05 253.39L363.89 256.82L365.6 260.34L367.18 263.92L368.62 267.58L369.92 271.31L371.09 275.11L372.11 278.96L372.98 282.88L373.7 286.85L374.26 290.87L374.67 294.94L374.92 299.06L375 303.22L374.92 307.38L374.67 311.5L374.26 315.57L373.7 319.59L372.98 323.56L372.11 327.47L371.09 331.33L369.92 335.12L368.62 338.85L367.18 342.51L365.6 346.1L363.89 349.61L362.05 353.05L360.08 356.4L358 359.67L355.79 362.85L353.47 365.93L351.04 368.93L348.49 371.82L345.84 374.61L343.09 377.3L340.24 379.89L337.29 382.36L334.25 384.71L331.11 386.95L327.89 389.07L324.59 391.06L321.21 392.93L317.75 394.66L314.21 396.27L310.61 397.73L308.75 398.4L309.02 398.52L313.96 400.66L318.81 402.76L323.58 404.81L328.26 406.82L332.85 408.8L337.35 410.73L341.74 412.63L346.03 414.5L350.21 416.33L354.28 418.13L358.23 419.9L362.06 421.65L365.76 423.37L369.33 425.07L372.77 426.75L376.08 428.4L379.24 430.04L382.25 431.67L385.11 433.28L387.82 434.87L390.37 436.46L392.76 438.04L394.98 439.61L397.02 441.18L398.9 442.74L400.59 444.31L402.1 445.87L403.42 447.44L404.55 449.01L405.49 450.58L406.22 452.17L406.75 453.76L407.07 455.37L407.18 456.99L407.07 458.61L406.75 460.21L406.22 461.8L405.49 463.37L404.55 464.91L403.42 466.43L402.1 467.94L400.59 469.41L398.9 470.86L397.02 472.29L394.98 473.68L392.76 475.05L390.37 476.39L387.82 477.69L385.11 478.96L382.25 480.2L379.24 481.4L376.08 482.56L372.77 483.69L369.33 484.78L365.76 485.82L362.06 486.83L358.23 487.79L354.28 488.71L350.21 489.58L346.03 490.4L341.74 491.18L337.35 491.9L332.85 492.58L328.26 493.2L323.58 493.77L318.81 494.28L313.96 494.74L309.02 495.15L304.01 495.49L298.93 495.77L293.78 496L288.57 496.16L283.3 496.25L277.97 496.29L272.64 496.25L267.37 496.16L262.16 496L257.01 495.77L251.93 495.49L246.92 495.15L241.99 494.74L237.13 494.28L232.36 493.77L227.68 493.2L223.09 492.58L218.59 491.9L214.2 491.18L209.91 490.4L205.73 489.58L201.66 488.71L197.71 487.79L193.88 486.83L190.18 485.82L186.61 484.78L183.17 483.69L179.87 482.56L176.71 481.4L173.69 480.2L170.83 478.96L168.12 477.69L165.57 476.39L163.18 475.05L160.96 473.68L158.92 472.29L157.04 470.86L155.35 469.41L153.84 467.94L152.52 466.43L151.39 464.91L150.45 463.37L149.72 461.8L149.19 460.21L148.87 458.61L148.76 456.99L148.87 455.37L149.19 453.76L149.72 452.17L150.45 450.58L151.39 449.01L152.52 447.44L153.84 445.87L155.35 444.31L157.04 442.74L158.92 441.18L160.96 439.61L163.18 438.04L165.57 436.46L168.12 434.87L170.83 433.28L173.69 431.67L176.71 430.04L179.87 428.4L183.17 426.75L186.61 425.07L190.18 423.37L193.88 421.65L197.71 419.9L201.66 418.13L205.73 416.33L209.91 414.5L214.2 412.63L218.59 410.73L223.09 408.8L227.68 406.82L232.36 404.81L237.13 402.76L241.99 400.66L244.99 399.35L244.06 399.06L240.38 397.73L236.78 396.27L233.24 394.66L229.78 392.93L226.4 391.06L223.1 389.07L219.88 386.95L216.74 384.71L213.7 382.36L210.75 379.89L207.9 377.3L205.15 374.61L202.5 371.82L199.96 368.93L197.52 365.93L195.2 362.85L192.99 359.67L190.91 356.4L188.94 353.05L187.1 349.61L185.39 346.1L183.81 342.51L182.37 338.85L181.07 335.12L179.9 331.33L178.88 327.47L178.01 323.56L177.29 319.59L176.73 315.57L176.32 311.5L176.07 307.38L175.99 303.22L176.07 299.06L176.32 294.94L176.73 290.87L177.29 286.85L178.01 282.88L178.88 278.96L179.9 275.11L181.07 271.31L182.37 267.58L183.81 263.92L185.39 260.34L187.1 256.82L188.94 253.39L190.91 250.04L192.99 246.77L195.2 243.59L197.52 240.5L199.96 237.51L202.5 234.61L205.15 231.82L207.9 229.13L210.75 226.55L213.7 224.08L216.74 221.72L219.88 219.49L223.1 217.37L226.4 215.37L229.78 213.51L233.24 211.77L236.78 210.17L240.38 208.7L244.06 207.38L247.8 206.2L251.59 205.16L255.45 204.28L259.36 203.55L263.33 202.98L267.34 202.56L271.4 202.31L275.5 202.23L279.59 202.31L283.65 202.56Z" id="cwLKPv8ck"></path></defs><g><g><g><use xlink:href="#c1eamVTotJ" opacity="1" fill="#ffffff" fill-opacity="1"></use><g><use xlink:href="#c1eamVTotJ" opacity="1" fill-opacity="0" stroke="#000000" stroke-width="8" stroke-opacity="0.5"></use></g></g><g><use xlink:href="#cwLKPv8ck" opacity="1" fill="#ffffff" fill-opacity="1"></use><g><use xlink:href="#cwLKPv8ck" opacity="1" fill-opacity="0" stroke="#000000" stroke-width="8" stroke-opacity="0.5"></use></g></g></g></g></svg>